<svg width="923" height="138" viewBox="0 0 923 138" fill="none" xmlns="http://www.w3.org/2000/svg">
    <path d="M656 0C666.493 -2.16656e-06 675 8.50659 675 19C675 29.4934 666.493 38 656 38L656 0ZM656 38C577.398 38 517.329 38.6838 471.333 41.009C425.05 43.3488 394.389 47.3043 373.942 53.3169C353.947 59.1964 346.278 66.2709 342.359 73.3259C337.754 81.6163 336 93.7498 336 115H298C298 93.7017 299.315 72.561 309.14 54.8736C319.651 35.9508 337.773 24.3438 363.222 16.8604C388.218 9.51013 422.655 5.42134 469.414 3.0575C516.46 0.679157 577.377 1.62331e-05 656 0L656 38Z" />
    <line x1="11.5" y1="-11.5" x2="911.5" y2="-11.5" transform="matrix(1 0 0 -1 0 115)" stroke-width="23" stroke-linecap="round"/>
</svg>
