<svg width="923" height="138" viewBox="0 0 923 138" fill="none" xmlns="http://www.w3.org/2000/svg">
    <path d="M656 138C666.493 138 675 129.493 675 119C675 108.507 666.493 100 656 100L656 138ZM656 100C577.398 100 517.329 99.3162 471.333 96.991C425.05 94.6512 394.389 90.6957 373.942 84.6831C353.947 78.8036 346.278 71.7291 342.359 64.6741C337.754 56.3837 336 44.2502 336 23H298C298 44.2983 299.315 65.439 309.14 83.1264C319.651 102.049 337.773 113.656 363.222 121.14C388.218 128.49 422.655 132.579 469.414 134.942C516.46 137.321 577.377 138 656 138L656 100Z" />
    <line x1="11.5" y1="11.5" x2="911.5" y2="11.5" stroke-width="23" stroke-linecap="round"/>
</svg>
